<svg xmlns="http://www.w3.org/2000/svg" width="464.136" height="197.579" viewBox="0 0 464.136 197.579"><defs><style>.a{fill:#d9343f;}</style></defs><path class="a" d="M516,237.313a6.312,6.312,0,1,1,6.312,6.312A6.312,6.312,0,0,1,516,237.313Zm-21.513,0a6.313,6.313,0,1,1,6.314,6.312A6.313,6.313,0,0,1,494.488,237.313Zm-21.5,0a6.312,6.312,0,1,1,6.312,6.312A6.313,6.313,0,0,1,472.992,237.313Zm-21.5,0a6.312,6.312,0,1,1,6.312,6.312A6.312,6.312,0,0,1,451.5,237.313Zm-21.5,0a6.313,6.313,0,1,1,6.313,6.312A6.312,6.312,0,0,1,430,237.313Zm-21.511,0a6.313,6.313,0,1,1,6.314,6.312A6.313,6.313,0,0,1,408.488,237.313Zm-21.5,0a6.313,6.313,0,1,1,6.312,6.312A6.312,6.312,0,0,1,386.993,237.313Zm-21.5,0a6.313,6.313,0,1,1,6.313,6.312A6.312,6.312,0,0,1,365.5,237.313Zm-21.5,0a6.312,6.312,0,1,1,6.313,6.312A6.312,6.312,0,0,1,344,237.313Zm-21.511,0a6.313,6.313,0,1,1,6.312,6.312A6.313,6.313,0,0,1,322.489,237.313Zm-21.5,0a6.312,6.312,0,1,1,6.311,6.312A6.311,6.311,0,0,1,300.993,237.313Zm-21.5,0a6.312,6.312,0,1,1,6.313,6.312A6.312,6.312,0,0,1,279.5,237.313Zm-21.5,0a6.313,6.313,0,1,1,6.313,6.312A6.313,6.313,0,0,1,258,237.313Zm-21.51,0a6.312,6.312,0,1,1,6.312,6.312A6.312,6.312,0,0,1,236.489,237.313Zm-21.5,0a6.312,6.312,0,1,1,6.314,6.312A6.312,6.312,0,0,1,214.992,237.313Zm-21.5,0a6.313,6.313,0,1,1,6.314,6.312A6.313,6.313,0,0,1,193.5,237.313Zm-21.5,0a6.313,6.313,0,1,1,6.312,6.312A6.313,6.313,0,0,1,172,237.313Zm-21.512,0a6.313,6.313,0,1,1,6.314,6.312A6.312,6.312,0,0,1,150.488,237.313Zm-21.5,0a6.313,6.313,0,1,1,6.313,6.312A6.313,6.313,0,0,1,128.992,237.313Zm-21.5,0a6.313,6.313,0,1,1,6.312,6.312A6.313,6.313,0,0,1,107.5,237.313Zm-21.5,0a6.313,6.313,0,1,1,6.312,6.312A6.312,6.312,0,0,1,86,237.313Zm-21.512,0a6.312,6.312,0,1,1,6.313,6.312A6.312,6.312,0,0,1,64.489,237.313Zm451.512-21a6.312,6.312,0,1,1,6.312,6.313A6.313,6.313,0,0,1,516,216.312Zm-21.513,0a6.313,6.313,0,1,1,6.314,6.313A6.314,6.314,0,0,1,494.488,216.312Zm-21.5,0a6.312,6.312,0,1,1,6.312,6.313A6.313,6.313,0,0,1,472.992,216.312Zm-21.5,0a6.312,6.312,0,1,1,6.312,6.313A6.313,6.313,0,0,1,451.5,216.312Zm-21.5,0a6.313,6.313,0,1,1,6.313,6.313A6.313,6.313,0,0,1,430,216.312Zm-21.511,0a6.313,6.313,0,1,1,6.314,6.313A6.314,6.314,0,0,1,408.488,216.312Zm-21.5,0a6.313,6.313,0,1,1,6.312,6.313A6.312,6.312,0,0,1,386.993,216.312Zm-21.5,0a6.313,6.313,0,1,1,6.313,6.313A6.313,6.313,0,0,1,365.5,216.312Zm-21.5,0a6.312,6.312,0,1,1,6.313,6.313A6.313,6.313,0,0,1,344,216.312Zm-21.511,0a6.313,6.313,0,1,1,6.312,6.313A6.313,6.313,0,0,1,322.489,216.312Zm-21.5,0a6.312,6.312,0,1,1,6.311,6.313A6.312,6.312,0,0,1,300.993,216.312Zm-21.5,0a6.312,6.312,0,1,1,6.313,6.313A6.313,6.313,0,0,1,279.5,216.312Zm-21.5,0a6.313,6.313,0,1,1,6.313,6.313A6.314,6.314,0,0,1,258,216.312Zm-21.51,0a6.312,6.312,0,1,1,6.312,6.313A6.312,6.312,0,0,1,236.489,216.312Zm-21.5,0a6.312,6.312,0,1,1,6.314,6.313A6.313,6.313,0,0,1,214.992,216.312Zm-21.5,0a6.313,6.313,0,1,1,6.314,6.313A6.314,6.314,0,0,1,193.5,216.312Zm-21.5,0a6.313,6.313,0,1,1,6.312,6.313A6.313,6.313,0,0,1,172,216.312Zm-21.512,0a6.313,6.313,0,1,1,6.314,6.313A6.313,6.313,0,0,1,150.488,216.312Zm-21.5,0a6.313,6.313,0,1,1,6.313,6.313A6.314,6.314,0,0,1,128.992,216.312Zm-21.5,0a6.313,6.313,0,1,1,6.312,6.313A6.313,6.313,0,0,1,107.5,216.312Zm-21.5,0a6.313,6.313,0,1,1,6.312,6.313A6.312,6.312,0,0,1,86,216.312Zm-21.512,0a6.312,6.312,0,1,1,6.313,6.313A6.313,6.313,0,0,1,64.489,216.312Zm451.512-21a6.312,6.312,0,0,1,3.339-5.57c1.724,3.807,3.359,7.679,4.89,11.586A6.317,6.317,0,0,1,516,195.313Zm-21.513,0a6.313,6.313,0,1,1,6.314,6.313A6.313,6.313,0,0,1,494.488,195.313Zm-21.5,0a6.312,6.312,0,1,1,6.312,6.313A6.313,6.313,0,0,1,472.992,195.313Zm-21.5,0a6.312,6.312,0,1,1,6.312,6.313A6.312,6.312,0,0,1,451.5,195.313Zm-21.5,0a6.313,6.313,0,1,1,6.313,6.313A6.312,6.312,0,0,1,430,195.313Zm-21.511,0a6.313,6.313,0,1,1,6.314,6.313A6.313,6.313,0,0,1,408.488,195.313Zm-21.5,0a6.313,6.313,0,1,1,6.312,6.313A6.312,6.312,0,0,1,386.993,195.313Zm-21.5,0a6.313,6.313,0,1,1,6.313,6.313A6.312,6.312,0,0,1,365.5,195.313Zm-21.5,0a6.312,6.312,0,1,1,6.313,6.313A6.312,6.312,0,0,1,344,195.313Zm-21.511,0a6.313,6.313,0,1,1,6.312,6.313A6.313,6.313,0,0,1,322.489,195.313Zm-21.5,0a6.312,6.312,0,1,1,6.311,6.313A6.311,6.311,0,0,1,300.993,195.313Zm-21.5,0a6.312,6.312,0,1,1,6.313,6.313A6.312,6.312,0,0,1,279.5,195.313Zm-21.5,0a6.313,6.313,0,1,1,6.313,6.313A6.313,6.313,0,0,1,258,195.313Zm-21.51,0a6.312,6.312,0,1,1,6.312,6.313A6.312,6.312,0,0,1,236.489,195.313Zm-21.5,0a6.312,6.312,0,1,1,6.314,6.313A6.312,6.312,0,0,1,214.992,195.313Zm-21.5,0a6.313,6.313,0,1,1,6.314,6.313A6.313,6.313,0,0,1,193.5,195.313Zm-21.5,0a6.313,6.313,0,1,1,6.312,6.313A6.313,6.313,0,0,1,172,195.313Zm-21.512,0a6.313,6.313,0,1,1,6.314,6.313A6.312,6.312,0,0,1,150.488,195.313Zm-21.5,0a6.313,6.313,0,1,1,6.313,6.313A6.313,6.313,0,0,1,128.992,195.313Zm-21.5,0a6.313,6.313,0,1,1,6.312,6.313A6.313,6.313,0,0,1,107.5,195.313Zm-21.5,0a6.313,6.313,0,1,1,6.312,6.313A6.312,6.312,0,0,1,86,195.313ZM68.784,201.3q2.306-5.883,4.9-11.6a6.314,6.314,0,0,1-4.9,11.6Zm425.7-26.983a6.313,6.313,0,1,1,6.314,6.312A6.313,6.313,0,0,1,494.488,174.313Zm-21.5,0a6.312,6.312,0,1,1,6.312,6.312A6.313,6.313,0,0,1,472.992,174.313Zm-21.5,0a6.312,6.312,0,1,1,6.312,6.312A6.312,6.312,0,0,1,451.5,174.313Zm-21.5,0a6.313,6.313,0,1,1,6.313,6.312A6.312,6.312,0,0,1,430,174.313Zm-21.511,0a6.313,6.313,0,1,1,6.314,6.312A6.313,6.313,0,0,1,408.488,174.313Zm-21.5,0a6.313,6.313,0,1,1,6.312,6.312A6.312,6.312,0,0,1,386.993,174.313Zm-21.5,0a6.313,6.313,0,1,1,6.313,6.312A6.312,6.312,0,0,1,365.5,174.313Zm-21.5,0a6.312,6.312,0,1,1,6.313,6.312A6.312,6.312,0,0,1,344,174.313Zm-21.511,0a6.313,6.313,0,1,1,6.312,6.312A6.313,6.313,0,0,1,322.489,174.313Zm-21.5,0a6.312,6.312,0,1,1,6.311,6.312A6.311,6.311,0,0,1,300.993,174.313Zm-21.5,0a6.312,6.312,0,1,1,6.313,6.312A6.312,6.312,0,0,1,279.5,174.313Zm-21.5,0a6.313,6.313,0,1,1,6.313,6.312A6.313,6.313,0,0,1,258,174.313Zm-21.51,0a6.312,6.312,0,1,1,6.312,6.312A6.312,6.312,0,0,1,236.489,174.313Zm-21.5,0a6.312,6.312,0,1,1,6.314,6.312A6.312,6.312,0,0,1,214.992,174.313Zm-21.5,0a6.313,6.313,0,1,1,6.314,6.312A6.313,6.313,0,0,1,193.5,174.313Zm-21.5,0a6.313,6.313,0,1,1,6.312,6.312A6.313,6.313,0,0,1,172,174.313Zm-21.512,0a6.313,6.313,0,1,1,6.314,6.312A6.312,6.312,0,0,1,150.488,174.313Zm-21.5,0a6.313,6.313,0,1,1,6.313,6.312A6.313,6.313,0,0,1,128.992,174.313Zm-21.5,0a6.313,6.313,0,1,1,6.312,6.312A6.313,6.313,0,0,1,107.5,174.313Zm-21.5,0a6.313,6.313,0,1,1,6.312,6.312A6.312,6.312,0,0,1,86,174.313Zm408.488-21a6.288,6.288,0,0,1,1.55-4.143q3.523,4.966,6.807,10.117a6.318,6.318,0,0,1-8.357-5.974Zm-21.5,0a6.312,6.312,0,1,1,6.312,6.313A6.313,6.313,0,0,1,472.992,153.312Zm-21.5,0a6.312,6.312,0,1,1,6.312,6.313A6.313,6.313,0,0,1,451.5,153.312Zm-21.5,0a6.313,6.313,0,1,1,6.313,6.313A6.313,6.313,0,0,1,430,153.312Zm-21.511,0a6.313,6.313,0,1,1,6.314,6.313A6.314,6.314,0,0,1,408.488,153.312Zm-21.5,0a6.313,6.313,0,1,1,6.312,6.313A6.312,6.312,0,0,1,386.993,153.312Zm-21.5,0a6.313,6.313,0,1,1,6.313,6.313A6.313,6.313,0,0,1,365.5,153.312Zm-21.5,0a6.312,6.312,0,1,1,6.313,6.313A6.313,6.313,0,0,1,344,153.312Zm-21.511,0a6.313,6.313,0,1,1,6.312,6.313A6.313,6.313,0,0,1,322.489,153.312Zm-21.5,0a6.312,6.312,0,1,1,6.311,6.313A6.312,6.312,0,0,1,300.993,153.312Zm-21.5,0a6.312,6.312,0,1,1,6.313,6.313A6.313,6.313,0,0,1,279.5,153.312Zm-21.5,0a6.313,6.313,0,1,1,6.313,6.313A6.314,6.314,0,0,1,258,153.312Zm-21.51,0a6.312,6.312,0,1,1,6.312,6.313A6.312,6.312,0,0,1,236.489,153.312Zm-21.5,0a6.312,6.312,0,1,1,6.314,6.313A6.313,6.313,0,0,1,214.992,153.312Zm-21.5,0a6.313,6.313,0,1,1,6.314,6.313A6.314,6.314,0,0,1,193.5,153.312Zm-21.5,0a6.313,6.313,0,1,1,6.312,6.313A6.313,6.313,0,0,1,172,153.312Zm-21.512,0a6.313,6.313,0,1,1,6.314,6.313A6.313,6.313,0,0,1,150.488,153.312Zm-21.5,0a6.313,6.313,0,1,1,6.313,6.313A6.314,6.314,0,0,1,128.992,153.312Zm-21.5,0a6.313,6.313,0,1,1,6.312,6.313A6.313,6.313,0,0,1,107.5,153.312Zm-17.321,5.942q3.3-5.173,6.837-10.156a6.315,6.315,0,0,1-6.837,10.156Zm382.817-26.942a6.316,6.316,0,0,1,4.608-6.08q3.835,4.226,7.478,8.634a6.313,6.313,0,0,1-12.086-2.554Zm-21.5,0a6.312,6.312,0,1,1,6.312,6.313A6.312,6.312,0,0,1,451.5,132.313Zm-21.5,0a6.313,6.313,0,1,1,6.313,6.313A6.312,6.312,0,0,1,430,132.313Zm-21.511,0a6.313,6.313,0,1,1,6.314,6.313A6.313,6.313,0,0,1,408.488,132.313Zm-21.5,0a6.313,6.313,0,1,1,6.312,6.313A6.312,6.312,0,0,1,386.993,132.313Zm-21.5,0a6.313,6.313,0,1,1,6.313,6.313A6.312,6.312,0,0,1,365.5,132.313Zm-21.5,0a6.312,6.312,0,1,1,6.313,6.313A6.312,6.312,0,0,1,344,132.313Zm-21.511,0a6.313,6.313,0,1,1,6.312,6.313A6.313,6.313,0,0,1,322.489,132.313Zm-21.5,0a6.312,6.312,0,1,1,6.311,6.313A6.311,6.311,0,0,1,300.993,132.313Zm-21.5,0a6.312,6.312,0,1,1,6.313,6.313A6.312,6.312,0,0,1,279.5,132.313Zm-21.5,0a6.313,6.313,0,1,1,6.313,6.313A6.313,6.313,0,0,1,258,132.313Zm-21.51,0a6.312,6.312,0,1,1,6.312,6.313A6.312,6.312,0,0,1,236.489,132.313Zm-21.5,0a6.312,6.312,0,1,1,6.314,6.313A6.312,6.312,0,0,1,214.992,132.313Zm-21.5,0a6.313,6.313,0,1,1,6.314,6.313A6.313,6.313,0,0,1,193.5,132.313Zm-21.5,0a6.313,6.313,0,1,1,6.312,6.313A6.313,6.313,0,0,1,172,132.313Zm-21.512,0a6.313,6.313,0,1,1,6.314,6.313A6.312,6.312,0,0,1,150.488,132.313Zm-21.5,0a6.313,6.313,0,1,1,6.313,6.313A6.313,6.313,0,0,1,128.992,132.313Zm-21,2.465q3.617-4.374,7.426-8.569A6.313,6.313,0,1,1,108,134.777Zm343.5-23.464a6.315,6.315,0,0,1,4.572-6.07q4.055,3.5,7.957,7.168a6.313,6.313,0,0,1-12.529-1.1Zm-21.5,0a6.313,6.313,0,1,1,6.313,6.312A6.312,6.312,0,0,1,430,111.313Zm-21.511,0a6.313,6.313,0,1,1,6.314,6.312A6.313,6.313,0,0,1,408.488,111.313Zm-21.5,0a6.313,6.313,0,1,1,6.312,6.312A6.312,6.312,0,0,1,386.993,111.313Zm-21.5,0a6.313,6.313,0,1,1,6.313,6.312A6.312,6.312,0,0,1,365.5,111.313Zm-21.5,0a6.312,6.312,0,1,1,6.313,6.312A6.312,6.312,0,0,1,344,111.313Zm-21.511,0a6.313,6.313,0,1,1,6.312,6.312A6.313,6.313,0,0,1,322.489,111.313Zm-21.5,0a6.312,6.312,0,1,1,6.311,6.312A6.311,6.311,0,0,1,300.993,111.313Zm-21.5,0a6.312,6.312,0,1,1,6.313,6.312A6.312,6.312,0,0,1,279.5,111.313Zm-21.5,0a6.313,6.313,0,1,1,6.313,6.312A6.313,6.313,0,0,1,258,111.313Zm-21.51,0a6.312,6.312,0,1,1,6.312,6.312A6.312,6.312,0,0,1,236.489,111.313Zm-21.5,0a6.312,6.312,0,1,1,6.314,6.312A6.312,6.312,0,0,1,214.992,111.313Zm-21.5,0a6.313,6.313,0,1,1,6.314,6.312A6.313,6.313,0,0,1,193.5,111.313Zm-21.5,0a6.313,6.313,0,1,1,6.312,6.312A6.313,6.313,0,0,1,172,111.313Zm-21.512,0a6.313,6.313,0,1,1,6.314,6.312A6.312,6.312,0,0,1,150.488,111.313Zm-21.417,1.006q3.866-3.634,7.888-7.1a6.313,6.313,0,1,1-7.888,7.1ZM430,90.312a6.285,6.285,0,0,1,1.3-3.831q5.265,3.486,10.337,7.233A6.314,6.314,0,0,1,430,90.312Zm-21.511,0a6.313,6.313,0,1,1,6.314,6.313A6.314,6.314,0,0,1,408.488,90.312Zm-21.5,0a6.313,6.313,0,1,1,6.312,6.313A6.312,6.312,0,0,1,386.993,90.312Zm-21.5,0a6.313,6.313,0,1,1,6.313,6.313A6.313,6.313,0,0,1,365.5,90.312Zm-21.5,0a6.312,6.312,0,1,1,6.313,6.313A6.313,6.313,0,0,1,344,90.312Zm-21.511,0a6.313,6.313,0,1,1,6.312,6.313A6.313,6.313,0,0,1,322.489,90.312Zm-21.5,0a6.312,6.312,0,1,1,6.311,6.313A6.312,6.312,0,0,1,300.993,90.312Zm-21.5,0a6.312,6.312,0,1,1,6.313,6.313A6.313,6.313,0,0,1,279.5,90.312Zm-21.5,0a6.313,6.313,0,1,1,6.313,6.313A6.314,6.314,0,0,1,258,90.312Zm-21.51,0a6.312,6.312,0,1,1,6.312,6.313A6.312,6.312,0,0,1,236.489,90.312Zm-21.5,0a6.312,6.312,0,1,1,6.314,6.313A6.313,6.313,0,0,1,214.992,90.312Zm-21.5,0a6.313,6.313,0,1,1,6.314,6.313A6.314,6.314,0,0,1,193.5,90.312Zm-21.5,0a6.313,6.313,0,1,1,6.312,6.313A6.313,6.313,0,0,1,172,90.312Zm-20.554,3.344q5.071-3.743,10.335-7.225a6.313,6.313,0,1,1-10.335,7.225ZM386.993,69.313a6.3,6.3,0,0,1,2.479-5.016c3.409,1.4,6.791,2.885,10.12,4.436q.026.287.026.58a6.313,6.313,0,0,1-12.625,0Zm-21.5,0a6.313,6.313,0,1,1,6.313,6.313A6.312,6.312,0,0,1,365.5,69.313Zm-21.5,0a6.312,6.312,0,1,1,6.313,6.313A6.312,6.312,0,0,1,344,69.313Zm-21.511,0a6.313,6.313,0,1,1,6.312,6.313A6.313,6.313,0,0,1,322.489,69.313Zm-21.5,0a6.312,6.312,0,1,1,6.311,6.313A6.311,6.311,0,0,1,300.993,69.313Zm-21.5,0a6.312,6.312,0,1,1,6.313,6.313A6.312,6.312,0,0,1,279.5,69.313Zm-21.5,0a6.313,6.313,0,1,1,6.313,6.313A6.313,6.313,0,0,1,258,69.313Zm-21.51,0a6.312,6.312,0,1,1,6.312,6.313A6.312,6.312,0,0,1,236.489,69.313Zm-21.5,0a6.312,6.312,0,1,1,6.314,6.313A6.312,6.312,0,0,1,214.992,69.313Zm-21.5,0q0-.322.032-.636,4.975-2.313,10.074-4.41A6.313,6.313,0,1,1,193.5,69.313Zm-11.38,5.039a6.3,6.3,0,0,1-1.726.924C180.965,74.964,181.537,74.658,182.115,74.351Zm229.234.247.972.521A6.3,6.3,0,0,1,411.349,74.6ZM344.468,50.7q5.1,1.015,10.132,2.241A6.314,6.314,0,0,1,344.468,50.7Zm-21.979-2.391a6.365,6.365,0,0,1,.07-.941q6.313.669,12.516,1.653a6.313,6.313,0,0,1-12.585-.713Zm-21.5,0a6.3,6.3,0,0,1,.418-2.265q6.017.118,11.963.525a6.313,6.313,0,1,1-12.382,1.74Zm-21.5,0a6.318,6.318,0,0,1,.245-1.748c3.954-.267,7.957-.442,11.96-.519A6.313,6.313,0,1,1,279.5,48.313Zm-21.459.695c4.143-.655,8.307-1.2,12.516-1.647a6.313,6.313,0,1,1-12.516,1.647ZM238.49,52.923c3.358-.817,6.754-1.567,10.165-2.244a6.314,6.314,0,0,1-10.165,2.244Z" transform="translate(-64.489 -46.046)"/></svg>