<svg xmlns="http://www.w3.org/2000/svg" width="304.511" height="129.627" viewBox="0 0 304.511 129.627"><defs><style>.a{fill:#d9343f;}</style></defs><path class="a" d="M141.223,129.287a4.141,4.141,0,1,1,7.847.341C146.444,129.577,143.817,129.462,141.223,129.287Zm13.942-1.145a4.142,4.142,0,1,1,8.124,1.14q-3.9.266-7.85.344A4.129,4.129,0,0,1,155.165,128.141Zm-28.181-.457a4.142,4.142,0,1,1,8.211,1.081C132.434,128.474,129.7,128.114,126.984,127.684Zm42.285.457a4.142,4.142,0,0,1,8.256-.468c-2.713.43-5.455.793-8.211,1.085A4.175,4.175,0,0,1,169.269,128.141Zm-55.11-3.026a4.142,4.142,0,0,1,6.669,1.472Q117.471,125.922,114.159,125.116ZM187.524,124a4.126,4.126,0,0,1,2.813,1.1q-3.3.8-6.647,1.47A4.142,4.142,0,0,1,187.524,124Zm9.961-9.636a4.142,4.142,0,1,1,4.142,4.142A4.142,4.142,0,0,1,197.485,114.363Zm-14.1,0a4.141,4.141,0,1,1,4.142,4.142A4.141,4.141,0,0,1,183.382,114.363Zm-14.113,0a4.141,4.141,0,1,1,4.141,4.142A4.141,4.141,0,0,1,169.269,114.363Zm-14.1,0a4.142,4.142,0,1,1,4.142,4.142A4.142,4.142,0,0,1,155.165,114.363Zm-14.1,0A4.141,4.141,0,1,1,145.2,118.5,4.141,4.141,0,0,1,141.062,114.363Zm-14.1,0A4.141,4.141,0,1,1,131.1,118.5,4.141,4.141,0,0,1,126.959,114.363Zm-14.113,0a4.141,4.141,0,1,1,4.141,4.142A4.141,4.141,0,0,1,112.847,114.363Zm-14.1,0a4.141,4.141,0,1,1,4.142,4.142A4.141,4.141,0,0,1,98.743,114.363Zm-14.082.417q-.021-.206-.021-.417a4.141,4.141,0,1,1,6.631,3.31Q87.929,116.3,84.66,114.78Zm126.929-.417a4.141,4.141,0,0,1,8.283,0q0,.192-.017.381c-2.184,1.017-4.4,1.99-6.639,2.91A4.135,4.135,0,0,1,211.589,114.363Zm-135.544-3.91a4.132,4.132,0,0,1,1.124.6Q76.607,110.757,76.045,110.453Zm152.154.1-.624.335A4.131,4.131,0,0,1,228.2,110.557Zm-2.507-9.971a4.141,4.141,0,1,1,4.142,4.141A4.141,4.141,0,0,1,225.692,100.586Zm-14.1,0a4.141,4.141,0,1,1,4.141,4.141A4.141,4.141,0,0,1,211.589,100.586Zm-14.1,0a4.142,4.142,0,1,1,4.142,4.141A4.142,4.142,0,0,1,197.485,100.586Zm-14.1,0a4.141,4.141,0,1,1,4.142,4.141A4.141,4.141,0,0,1,183.382,100.586Zm-14.113,0a4.141,4.141,0,1,1,4.141,4.141A4.141,4.141,0,0,1,169.269,100.586Zm-14.1,0a4.142,4.142,0,1,1,4.142,4.141A4.142,4.142,0,0,1,155.165,100.586Zm-14.1,0a4.141,4.141,0,1,1,4.142,4.141A4.141,4.141,0,0,1,141.062,100.586Zm-14.1,0a4.141,4.141,0,1,1,4.141,4.141A4.141,4.141,0,0,1,126.959,100.586Zm-14.113,0a4.141,4.141,0,1,1,4.141,4.141A4.141,4.141,0,0,1,112.847,100.586Zm-14.1,0a4.141,4.141,0,1,1,4.142,4.141A4.141,4.141,0,0,1,98.743,100.586Zm-14.1,0a4.141,4.141,0,1,1,4.141,4.141A4.141,4.141,0,0,1,84.64,100.586Zm-14.1,0a4.141,4.141,0,1,1,4.141,4.141A4.141,4.141,0,0,1,70.537,100.586ZM57.051,98.391a4.142,4.142,0,1,1,6.78,4.74Q60.376,100.846,57.051,98.391Zm182.754,2.195a4.142,4.142,0,0,1,7.631-2.232q-3.326,2.457-6.781,4.745A4.122,4.122,0,0,1,239.805,100.586Zm0-13.778a4.142,4.142,0,1,1,4.142,4.142A4.143,4.143,0,0,1,239.805,86.808Zm-14.113,0a4.141,4.141,0,1,1,4.142,4.142A4.142,4.142,0,0,1,225.692,86.808Zm-14.1,0a4.141,4.141,0,1,1,4.141,4.142A4.142,4.142,0,0,1,211.589,86.808Zm-14.1,0a4.142,4.142,0,1,1,4.142,4.142A4.143,4.143,0,0,1,197.485,86.808Zm-14.1,0a4.141,4.141,0,1,1,4.142,4.142A4.142,4.142,0,0,1,183.382,86.808Zm-14.113,0a4.141,4.141,0,1,1,4.141,4.142A4.142,4.142,0,0,1,169.269,86.808Zm-14.1,0a4.142,4.142,0,1,1,4.142,4.142A4.143,4.143,0,0,1,155.165,86.808Zm-14.1,0A4.141,4.141,0,1,1,145.2,90.95,4.142,4.142,0,0,1,141.062,86.808Zm-14.1,0A4.141,4.141,0,1,1,131.1,90.95,4.142,4.142,0,0,1,126.959,86.808Zm-14.113,0a4.141,4.141,0,1,1,4.141,4.142A4.142,4.142,0,0,1,112.847,86.808Zm-14.1,0a4.141,4.141,0,1,1,4.142,4.142A4.142,4.142,0,0,1,98.743,86.808Zm-14.1,0a4.141,4.141,0,1,1,4.141,4.142A4.142,4.142,0,0,1,84.64,86.808Zm-14.1,0a4.141,4.141,0,1,1,4.141,4.142A4.142,4.142,0,0,1,70.537,86.808Zm-14.114,0a4.141,4.141,0,1,1,4.142,4.142A4.142,4.142,0,0,1,56.423,86.808Zm-14.051-.66a4.142,4.142,0,1,1,5.175,4.658Q44.909,88.532,42.372,86.147Zm211.537.66a4.142,4.142,0,0,1,8.22-.721q-2.557,2.406-5.221,4.7A4.144,4.144,0,0,1,253.909,86.808Zm0-13.778a4.141,4.141,0,1,1,4.141,4.142A4.141,4.141,0,0,1,253.909,73.03Zm-14.1,0a4.142,4.142,0,1,1,4.142,4.142A4.142,4.142,0,0,1,239.805,73.03Zm-14.113,0a4.141,4.141,0,1,1,4.142,4.142A4.141,4.141,0,0,1,225.692,73.03Zm-14.1,0a4.141,4.141,0,1,1,4.141,4.142A4.141,4.141,0,0,1,211.589,73.03Zm-14.1,0a4.142,4.142,0,1,1,4.142,4.142A4.142,4.142,0,0,1,197.485,73.03Zm-14.1,0a4.141,4.141,0,1,1,4.142,4.142A4.141,4.141,0,0,1,183.382,73.03Zm-14.113,0a4.141,4.141,0,1,1,4.141,4.142A4.141,4.141,0,0,1,169.269,73.03Zm-14.1,0a4.142,4.142,0,1,1,4.142,4.142A4.142,4.142,0,0,1,155.165,73.03Zm-14.1,0a4.141,4.141,0,1,1,4.142,4.142A4.141,4.141,0,0,1,141.062,73.03Zm-14.1,0a4.141,4.141,0,1,1,4.141,4.142A4.141,4.141,0,0,1,126.959,73.03Zm-14.113,0a4.141,4.141,0,1,1,4.141,4.142A4.141,4.141,0,0,1,112.847,73.03Zm-14.1,0a4.141,4.141,0,1,1,4.142,4.142A4.141,4.141,0,0,1,98.743,73.03Zm-14.1,0a4.141,4.141,0,1,1,4.141,4.142A4.141,4.141,0,0,1,84.64,73.03Zm-14.1,0a4.141,4.141,0,1,1,4.141,4.142A4.141,4.141,0,0,1,70.537,73.03Zm-14.114,0a4.141,4.141,0,1,1,4.142,4.142A4.141,4.141,0,0,1,56.423,73.03Zm-14.1,0a4.141,4.141,0,1,1,4.141,4.142A4.141,4.141,0,0,1,42.32,73.03ZM28.544,71.412a4.142,4.142,0,1,1,4.873,5.622Q30.915,74.279,28.544,71.412ZM268.012,73.03a4.142,4.142,0,0,1,7.929-1.676q-2.386,2.888-4.906,5.665A4.143,4.143,0,0,1,268.012,73.03Zm0-13.777a4.141,4.141,0,1,1,4.142,4.141A4.142,4.142,0,0,1,268.012,59.252Zm-14.1,0a4.141,4.141,0,1,1,4.141,4.141A4.142,4.142,0,0,1,253.909,59.252Zm-14.1,0a4.142,4.142,0,1,1,4.142,4.141A4.143,4.143,0,0,1,239.805,59.252Zm-14.113,0a4.141,4.141,0,1,1,4.142,4.141A4.142,4.142,0,0,1,225.692,59.252Zm-14.1,0a4.141,4.141,0,1,1,4.141,4.141A4.142,4.142,0,0,1,211.589,59.252Zm-14.1,0a4.142,4.142,0,1,1,4.142,4.141A4.143,4.143,0,0,1,197.485,59.252Zm-14.1,0a4.141,4.141,0,1,1,4.142,4.141A4.142,4.142,0,0,1,183.382,59.252Zm-14.113,0a4.141,4.141,0,1,1,4.141,4.141A4.142,4.142,0,0,1,169.269,59.252Zm-14.1,0a4.142,4.142,0,1,1,4.142,4.141A4.143,4.143,0,0,1,155.165,59.252Zm-14.1,0a4.141,4.141,0,1,1,4.142,4.141A4.142,4.142,0,0,1,141.062,59.252Zm-14.1,0a4.141,4.141,0,1,1,4.141,4.141A4.142,4.142,0,0,1,126.959,59.252Zm-14.113,0a4.141,4.141,0,1,1,4.141,4.141A4.142,4.142,0,0,1,112.847,59.252Zm-14.1,0a4.141,4.141,0,1,1,4.142,4.141A4.142,4.142,0,0,1,98.743,59.252Zm-14.1,0a4.141,4.141,0,1,1,4.141,4.141A4.142,4.142,0,0,1,84.64,59.252Zm-14.1,0a4.141,4.141,0,1,1,4.141,4.141A4.142,4.142,0,0,1,70.537,59.252Zm-14.114,0a4.141,4.141,0,1,1,4.142,4.141A4.142,4.142,0,0,1,56.423,59.252Zm-14.1,0a4.141,4.141,0,1,1,4.141,4.141A4.142,4.142,0,0,1,42.32,59.252Zm-14.1,0a4.142,4.142,0,1,1,4.142,4.141A4.143,4.143,0,0,1,28.216,59.252Zm-11.363-3.9a4.142,4.142,0,0,1,4.485,6.663Q19.012,58.741,16.853,55.354Zm265.262,3.9a4.144,4.144,0,0,1,5.483-3.92q-2.151,3.375-4.466,6.637A4.124,4.124,0,0,1,282.115,59.252Zm0-13.778a4.142,4.142,0,1,1,4.142,4.142A4.142,4.142,0,0,1,282.115,45.474Zm-14.1,0a4.141,4.141,0,1,1,4.142,4.142A4.141,4.141,0,0,1,268.012,45.474Zm-14.1,0a4.141,4.141,0,1,1,4.141,4.142A4.141,4.141,0,0,1,253.909,45.474Zm-14.1,0a4.142,4.142,0,1,1,4.142,4.142A4.142,4.142,0,0,1,239.805,45.474Zm-14.113,0a4.141,4.141,0,1,1,4.142,4.142A4.141,4.141,0,0,1,225.692,45.474Zm-14.1,0a4.141,4.141,0,1,1,4.141,4.142A4.141,4.141,0,0,1,211.589,45.474Zm-14.1,0a4.142,4.142,0,1,1,4.142,4.142A4.142,4.142,0,0,1,197.485,45.474Zm-14.1,0a4.141,4.141,0,1,1,4.142,4.142A4.141,4.141,0,0,1,183.382,45.474Zm-14.113,0a4.141,4.141,0,1,1,4.141,4.142A4.141,4.141,0,0,1,169.269,45.474Zm-14.1,0a4.142,4.142,0,1,1,4.142,4.142A4.142,4.142,0,0,1,155.165,45.474Zm-14.1,0a4.141,4.141,0,1,1,4.142,4.142A4.141,4.141,0,0,1,141.062,45.474Zm-14.1,0a4.141,4.141,0,1,1,4.141,4.142A4.141,4.141,0,0,1,126.959,45.474Zm-14.113,0a4.141,4.141,0,1,1,4.141,4.142A4.141,4.141,0,0,1,112.847,45.474Zm-14.1,0a4.141,4.141,0,1,1,4.142,4.142A4.141,4.141,0,0,1,98.743,45.474Zm-14.1,0a4.141,4.141,0,1,1,4.141,4.142A4.141,4.141,0,0,1,84.64,45.474Zm-14.1,0a4.141,4.141,0,1,1,4.141,4.142A4.141,4.141,0,0,1,70.537,45.474Zm-14.114,0a4.141,4.141,0,1,1,4.142,4.142A4.141,4.141,0,0,1,56.423,45.474Zm-14.1,0a4.141,4.141,0,1,1,4.141,4.142A4.141,4.141,0,0,1,42.32,45.474Zm-14.1,0a4.142,4.142,0,1,1,4.142,4.142A4.142,4.142,0,0,1,28.216,45.474Zm-14.1,0a4.141,4.141,0,1,1,4.142,4.142A4.141,4.141,0,0,1,14.113,45.474Zm268-13.777a4.142,4.142,0,1,1,4.142,4.141A4.142,4.142,0,0,1,282.115,31.7Zm-14.1,0a4.141,4.141,0,1,1,4.142,4.141A4.141,4.141,0,0,1,268.012,31.7Zm-14.1,0a4.141,4.141,0,1,1,4.141,4.141A4.141,4.141,0,0,1,253.909,31.7Zm-14.1,0a4.142,4.142,0,1,1,4.142,4.141A4.142,4.142,0,0,1,239.805,31.7Zm-14.113,0a4.141,4.141,0,1,1,4.142,4.141A4.141,4.141,0,0,1,225.692,31.7Zm-14.1,0a4.141,4.141,0,1,1,4.141,4.141A4.141,4.141,0,0,1,211.589,31.7Zm-14.1,0a4.142,4.142,0,1,1,4.142,4.141A4.142,4.142,0,0,1,197.485,31.7Zm-14.1,0a4.141,4.141,0,1,1,4.142,4.141A4.141,4.141,0,0,1,183.382,31.7Zm-14.113,0a4.141,4.141,0,1,1,4.141,4.141A4.141,4.141,0,0,1,169.269,31.7Zm-14.1,0a4.142,4.142,0,1,1,4.142,4.141A4.142,4.142,0,0,1,155.165,31.7Zm-14.1,0a4.141,4.141,0,1,1,4.142,4.141A4.141,4.141,0,0,1,141.062,31.7Zm-14.1,0a4.141,4.141,0,1,1,4.141,4.141A4.141,4.141,0,0,1,126.959,31.7Zm-14.113,0a4.141,4.141,0,1,1,4.141,4.141A4.141,4.141,0,0,1,112.847,31.7Zm-14.1,0a4.141,4.141,0,1,1,4.142,4.141A4.141,4.141,0,0,1,98.743,31.7Zm-14.1,0a4.141,4.141,0,1,1,4.141,4.141A4.141,4.141,0,0,1,84.64,31.7Zm-14.1,0a4.141,4.141,0,1,1,4.141,4.141A4.141,4.141,0,0,1,70.537,31.7Zm-14.114,0a4.141,4.141,0,1,1,4.142,4.141A4.141,4.141,0,0,1,56.423,31.7Zm-14.1,0a4.141,4.141,0,1,1,4.141,4.141A4.141,4.141,0,0,1,42.32,31.7Zm-14.1,0a4.142,4.142,0,1,1,4.142,4.141A4.142,4.142,0,0,1,28.216,31.7Zm-14.1,0a4.141,4.141,0,1,1,4.142,4.141A4.141,4.141,0,0,1,14.113,31.7Zm-11.3-3.926a4.142,4.142,0,0,1,3.214,7.611Q4.328,31.623,2.818,27.771ZM296.229,31.7a4.144,4.144,0,0,1,5.4-3.947c-1,2.564-2.077,5.1-3.208,7.6A4.14,4.14,0,0,1,296.229,31.7Zm0-13.778a4.141,4.141,0,1,1,4.141,4.142A4.141,4.141,0,0,1,296.229,17.919Zm-14.114,0a4.142,4.142,0,1,1,4.142,4.142A4.142,4.142,0,0,1,282.115,17.919Zm-14.1,0a4.141,4.141,0,1,1,4.142,4.142A4.141,4.141,0,0,1,268.012,17.919Zm-14.1,0a4.141,4.141,0,1,1,4.141,4.142A4.141,4.141,0,0,1,253.909,17.919Zm-14.1,0a4.142,4.142,0,1,1,4.142,4.142A4.142,4.142,0,0,1,239.805,17.919Zm-14.113,0a4.141,4.141,0,1,1,4.142,4.142A4.141,4.141,0,0,1,225.692,17.919Zm-14.1,0a4.141,4.141,0,1,1,4.141,4.142A4.141,4.141,0,0,1,211.589,17.919Zm-14.1,0a4.142,4.142,0,1,1,4.142,4.142A4.142,4.142,0,0,1,197.485,17.919Zm-14.1,0a4.141,4.141,0,1,1,4.142,4.142A4.141,4.141,0,0,1,183.382,17.919Zm-14.113,0a4.141,4.141,0,1,1,4.141,4.142A4.141,4.141,0,0,1,169.269,17.919Zm-14.1,0a4.142,4.142,0,1,1,4.142,4.142A4.142,4.142,0,0,1,155.165,17.919Zm-14.1,0a4.141,4.141,0,1,1,4.142,4.142A4.141,4.141,0,0,1,141.062,17.919Zm-14.1,0a4.141,4.141,0,1,1,4.141,4.142A4.141,4.141,0,0,1,126.959,17.919Zm-14.113,0a4.141,4.141,0,1,1,4.141,4.142A4.141,4.141,0,0,1,112.847,17.919Zm-14.1,0a4.141,4.141,0,1,1,4.142,4.142A4.141,4.141,0,0,1,98.743,17.919Zm-14.1,0a4.141,4.141,0,1,1,4.141,4.142A4.141,4.141,0,0,1,84.64,17.919Zm-14.1,0a4.141,4.141,0,1,1,4.141,4.142A4.141,4.141,0,0,1,70.537,17.919Zm-14.114,0a4.141,4.141,0,1,1,4.142,4.142A4.141,4.141,0,0,1,56.423,17.919Zm-14.1,0a4.141,4.141,0,1,1,4.141,4.142A4.141,4.141,0,0,1,42.32,17.919Zm-14.1,0a4.142,4.142,0,1,1,4.142,4.142A4.142,4.142,0,0,1,28.216,17.919Zm-14.1,0a4.141,4.141,0,1,1,4.142,4.142A4.141,4.141,0,0,1,14.113,17.919ZM0,17.919a4.141,4.141,0,1,1,4.142,4.142A4.141,4.141,0,0,1,0,17.919ZM296.229,4.142a4.141,4.141,0,1,1,4.141,4.141A4.141,4.141,0,0,1,296.229,4.142Zm-14.114,0a4.142,4.142,0,1,1,4.142,4.141A4.142,4.142,0,0,1,282.115,4.142Zm-14.1,0a4.141,4.141,0,1,1,4.142,4.141A4.141,4.141,0,0,1,268.012,4.142Zm-14.1,0a4.141,4.141,0,1,1,4.141,4.141A4.141,4.141,0,0,1,253.909,4.142Zm-14.1,0a4.142,4.142,0,1,1,4.142,4.141A4.142,4.142,0,0,1,239.805,4.142Zm-14.113,0a4.141,4.141,0,1,1,4.142,4.141A4.141,4.141,0,0,1,225.692,4.142Zm-14.1,0a4.141,4.141,0,1,1,4.141,4.141A4.141,4.141,0,0,1,211.589,4.142Zm-14.1,0a4.142,4.142,0,1,1,4.142,4.141A4.142,4.142,0,0,1,197.485,4.142Zm-14.1,0a4.141,4.141,0,1,1,4.142,4.141A4.141,4.141,0,0,1,183.382,4.142Zm-14.113,0a4.141,4.141,0,1,1,4.141,4.141A4.141,4.141,0,0,1,169.269,4.142Zm-14.1,0a4.142,4.142,0,1,1,4.142,4.141A4.142,4.142,0,0,1,155.165,4.142Zm-14.1,0A4.141,4.141,0,1,1,145.2,8.283,4.141,4.141,0,0,1,141.062,4.142Zm-14.1,0A4.141,4.141,0,1,1,131.1,8.283,4.141,4.141,0,0,1,126.959,4.142Zm-14.113,0a4.141,4.141,0,1,1,4.141,4.141A4.141,4.141,0,0,1,112.847,4.142Zm-14.1,0a4.141,4.141,0,1,1,4.142,4.141A4.141,4.141,0,0,1,98.743,4.142Zm-14.1,0a4.141,4.141,0,1,1,4.141,4.141A4.141,4.141,0,0,1,84.64,4.142Zm-14.1,0a4.141,4.141,0,1,1,4.141,4.141A4.141,4.141,0,0,1,70.537,4.142Zm-14.114,0a4.141,4.141,0,1,1,4.142,4.141A4.141,4.141,0,0,1,56.423,4.142Zm-14.1,0a4.141,4.141,0,1,1,4.141,4.141A4.141,4.141,0,0,1,42.32,4.142Zm-14.1,0a4.142,4.142,0,1,1,4.142,4.141A4.142,4.142,0,0,1,28.216,4.142Zm-14.1,0a4.141,4.141,0,1,1,4.142,4.141A4.141,4.141,0,0,1,14.113,4.142ZM0,4.142A4.141,4.141,0,1,1,4.142,8.283,4.141,4.141,0,0,1,0,4.142Z"/></svg>