<svg xmlns="http://www.w3.org/2000/svg" xmlns:xlink="http://www.w3.org/1999/xlink" width="358" height="716" viewBox="0 0 358 716"><defs><style>.a{fill:url(#a);}</style><linearGradient id="a" x1="0.5" y1="1" x2="0.5" gradientUnits="objectBoundingBox"><stop offset="0" stop-color="#bc2b35"/><stop offset="1" stop-color="#d9343f"/></linearGradient></defs><path class="a" d="M0,0V716a363.747,363.747,0,0,0,36.6-1.848,358.92,358.92,0,0,0,35.546-5.425,356.2,356.2,0,0,0,67.2-20.86,358.031,358.031,0,0,0,60.811-33.007,360.575,360.575,0,0,0,52.983-43.715,360.563,360.563,0,0,0,43.715-52.983,358.019,358.019,0,0,0,33.008-60.812,356.193,356.193,0,0,0,20.86-67.2,358.945,358.945,0,0,0,5.425-35.546A363.743,363.743,0,0,0,358,358a363.742,363.742,0,0,0-1.848-36.6,358.94,358.94,0,0,0-5.425-35.546,356.191,356.191,0,0,0-20.86-67.2,358.011,358.011,0,0,0-33.008-60.811,360.566,360.566,0,0,0-43.715-52.983,360.575,360.575,0,0,0-52.983-43.715A358.049,358.049,0,0,0,139.35,28.133a356.2,356.2,0,0,0-67.2-20.86A358.9,358.9,0,0,0,36.6,1.848,363.745,363.745,0,0,0,0,0Z" transform="translate(358 716) rotate(180)"/></svg>