<svg xmlns="http://www.w3.org/2000/svg" width="70" height="70" viewBox="0 0 70 70"><defs><style>.a,.d{fill:none;}.a{stroke:#f2f0c9;opacity:0.5;}.b{fill:#f2f0c9;}.c{stroke:none;}</style></defs><g transform="translate(-816 -691)"><g class="a" transform="translate(816 691)"><circle class="c" cx="35" cy="35" r="35"/><circle class="d" cx="35" cy="35" r="34.5"/></g><path class="b" d="M298.332,512.708a8.359,8.359,0,0,1-4.467-7.161c-.285-5.557-3.064-9.547-6.7-9.547s-6.412,3.99-6.7,9.547A8.359,8.359,0,0,1,276,512.708a.7.7,0,0,0,.32,1.317h7.105c.023,1.7,1.688,3.064,3.74,3.064s3.716-1.369,3.739-3.064h7.105a.7.7,0,0,0,.32-1.317Z" transform="translate(563.833 219.06)"/></g></svg>