<svg xmlns="http://www.w3.org/2000/svg" width="170.446" height="40.158" viewBox="0 0 170.446 40.158"><defs><style>.a{fill:#f2f0c9;}</style></defs><g transform="translate(-137.751 -200.536)"><path class="a" d="M165.246,233.857a52.806,52.806,0,0,0-1.089-7.814c-.482-2.4-.424-4.946-.864-7.388a59.182,59.182,0,0,1-1-10.141c0-.471-.048-.739-.756-.643-3.591.488-7.161,1.109-10.776,1.484-2.889.3-5.76.575-8.664.67-1.54.051-2.548-1.193-3.981-1.316-.252-.021-.412-.416-.35-.724a.943.943,0,0,1,.917-.774c2.759.073,5.448-.738,8.217-.578,1.8.1,3.394-1,5.2-1,1.977,0,3.863-1.113,5.888-.543.483.136.672-.3,1.042-.355a36.916,36.916,0,0,1,4.082-.331,21.229,21.229,0,0,0,4.689-.718c2.227-.617,4.508-.435,6.75-.729.6-.079,1.174-.286,1.731-.41,2.713-.6,5.561-.149,8.209-1.039,1.849-.622,3.8-.429,5.672-.915,1.072-.278,2.186.448,3.181,1.009.094.053.181.34.143.373-.538.475-.175,1.42-1.249,1.738-1.907.565-3.926.252-5.753.867-1.851.623-3.77.376-5.589.792-4.18.957-8.462.882-12.672,1.473-.4.056-.984.115-.93.485.169,1.155-.623,2.147-.322,3.359.394,1.585.963,3.2.516,4.9a1.32,1.32,0,0,0,.286,1.085c.84,1.235.2,2.624.4,3.9.276,1.783-.041,3.615.529,5.356a33.5,33.5,0,0,1,.876,4.211c.342,1.791-.031,3.656.794,5.418.522,1.116-.189,2.095-1.42,2.442a2.617,2.617,0,0,1-3.5-2A8.339,8.339,0,0,1,165.246,233.857Z"/><path class="a" d="M427.649,290.014c-1.362.628-1.831,1.925-2.416,3a22.594,22.594,0,0,1-2.505,3.962,1.792,1.792,0,0,0-.532,1.7,1.712,1.712,0,0,1-1.518,2.139,2.112,2.112,0,0,1-2.341-1.436,2.258,2.258,0,0,1,.032-1.694c1.385-2.357,2.02-5.112,3.88-7.22a6.744,6.744,0,0,0,.995-1.723c.876-1.954,2.805-2.432,4.511-3.1,1.158-.452,3.337,1.021,3.781,2.275a17.336,17.336,0,0,1,.682,5.274,36.576,36.576,0,0,0,.531,3.782c1.615-2.789,3.819-4.8,4.99-7.607,1.1-2.633,4.759-3.573,7.3-2.222.329.175.758.454.836.762.325,1.283,1.412,2.3,1.427,3.639.03,2.61,1.265,4.793,2.394,6.984.542,1.051.129,1.362-.648,1.673-1.834.735-3.619-.546-3.84-2.81a49.984,49.984,0,0,0-1.442-6.91c-.162-.668-.244-1.551-.985-1.577-.692-.024-1.171.777-1.523,1.373-.892,1.512-1.693,3.078-2.528,4.624-.045.084-.037.218-.1.266-1.825,1.365-2.2,3.931-4.269,5.12a1.921,1.921,0,0,1-1.579.254c-2.46-.55-3.587-2.221-4.232-4.494A30.917,30.917,0,0,1,427.649,290.014Z" transform="translate(-209.544 -63.524)"/><path class="a" d="M771.884,295.118c.258,1.327.687,3.112-.124,4.782-1.053,2.17-1.9,4.571-4.386,5.61a3.605,3.605,0,0,1-3.142-.023,21.707,21.707,0,0,1-3.49-1.411,4.371,4.371,0,0,1-1.764-4.775,1.939,1.939,0,0,0,.131-1.105,11.637,11.637,0,0,1,.858-6.644,4.316,4.316,0,0,1,3.687-2.5,9.379,9.379,0,0,1,6.51,1.727C771.437,291.634,771.986,293.1,771.884,295.118Zm-4.275,1.425a17.494,17.494,0,0,0-.142-2.315,2.338,2.338,0,0,0-2.032-2.124c-1.331-.2-1.842.968-1.954,2.036-.228,2.171-.811,4.325-.511,6.532a2.231,2.231,0,0,0,1.3,1.937c.756.281,1.292-.409,1.606-.929C766.852,300.057,768.057,298.471,767.608,296.542Z" transform="translate(-464.033 -66.081)"/><path class="a" d="M326.176,293.864a19.987,19.987,0,0,1,2.33-7.059,4.892,4.892,0,0,1,4.878-2.154,10.149,10.149,0,0,1,3.4.735c2.23,1.043,4.377,2.325,4.459,5.063.105,3.517-.237,6.781-4.049,9.145a5.526,5.526,0,0,1-4.121,1.058,7.421,7.421,0,0,1-4.177-1.755,16.726,16.726,0,0,0-1.788-1.384C325.977,296.655,326.317,295.211,326.176,293.864Zm10.655-1.47c.093-2.4.1-2.407-1.325-4.088-1.779-2.093-2.371-1.549-3.459.344a9.6,9.6,0,0,0-1.271,7.818c.488,1.582,1.67,2.177,3.015,1.233C335.8,296.289,337.324,294.584,336.831,292.394Z" transform="translate(-140.792 -62.826)"/><path class="a" d="M659.166,281.981A9.058,9.058,0,0,1,662,281.9c1.364.031,1.918-.579,1.841-1.894-.047-.786.183-1.431,1.072-1.569.715-.11,1.31.157,1.335.929.02.6.365,1.108.407,1.6.078.895.48.726,1.021.644a19.14,19.14,0,0,1,8.06.056c.686.19,1.814.251,1.452,1.333a1.938,1.938,0,0,1-2.154,1.6,41.262,41.262,0,0,0-7.367.22c-1.19.139-.808,1.607-.635,2.25a15.966,15.966,0,0,1,.313,5.134,13.454,13.454,0,0,0,.887,4.724c.276.922-.257,1.206-.467,1.683-.182.412-.787.3-1.285.064a5.209,5.209,0,0,1-3.269-5.161,43.887,43.887,0,0,1,.134-4.589c.1-.991-.188-2.118-.036-3.208.06-.429-.176-.694-.719-.617-1.338.19-2.66-.319-4.065.165-.9.311-1.936-.552-2.717-1.088a1.114,1.114,0,0,1,.551-1.876A5.556,5.556,0,0,1,659.166,281.981Z" transform="translate(-386.854 -58.19)"/><path class="a" d="M582.455,292.563a14.259,14.259,0,0,0,.074,3.8c.347,1.629,1.552,2.663,2.495,3.876a1.21,1.21,0,0,1,.3,1.305c-.232.558-.789.364-1.143.311-1.157-.175-2.4-.206-3.13-1.406-.6-.976-1.219-.7-1.792.067a4.214,4.214,0,0,1-4.865,1.47c-.36-.132-.718-.455-1.057-.429-2.265.173-3.15-1.3-3.439-3.107-.427-2.657-.468-5.523,1.475-7.542,1.471-1.529,3.2-3.4,5.9-2.679.393.1.857-.1,1.285-.08C581.05,288.263,582.547,289.964,582.455,292.563Zm-9.088,3.743c.268.549.067,1.3.255,1.986.261.956.668,1.482,1.827.977,2.409-1.05,3-3.5,4.243-5.416.521-.8-.289-1.88-.4-2.853-.106-.931-1.11-.93-1.764-1.234-.7-.327-.664.383-.909.751a3.331,3.331,0,0,1-.967.839C573.912,292.5,573.514,294.289,573.367,296.306Z" transform="translate(-322.727 -65.408)"/></g></svg>