<?xml version="1.0" encoding="UTF-8" standalone="no"?>
<!DOCTYPE svg PUBLIC "-//W3C//DTD SVG 1.1//EN" "http://www.w3.org/Graphics/SVG/1.1/DTD/svg11.dtd">
<svg version="1.1" xmlns="http://www.w3.org/2000/svg" xmlns:xlink="http://www.w3.org/1999/xlink" preserveAspectRatio="xMidYMid meet" viewBox="0 0 69 69" width="69" height="69"><defs><path d="M34.5 0C15.45 0 0 15.45 0 34.5C0 53.55 15.45 69 34.5 69C53.55 69 69 53.55 69 34.5C69 15.45 53.55 0 34.5 0Z" id="d2IB3TvPq2"></path><path d="M31.5 26.5C31.5 26.5 31.5 26.5 31.5 26.5C31.5 36.1 31.5 41.43 31.5 42.5C31.5 42.5 31.5 42.5 31.5 42.5C27.9 42.5 25.9 42.5 25.5 42.5C25.5 42.5 25.5 42.5 25.5 42.5C25.5 32.9 25.5 27.57 25.5 26.5C25.5 26.5 25.5 26.5 25.5 26.5C29.1 26.5 31.1 26.5 31.5 26.5Z" id="daxMzt3Fm"></path><path d="M43.5 26.5C43.5 26.5 43.5 26.5 43.5 26.5C43.5 36.1 43.5 41.43 43.5 42.5C43.5 42.5 43.5 42.5 43.5 42.5C39.9 42.5 37.9 42.5 37.5 42.5C37.5 42.5 37.5 42.5 37.5 42.5C37.5 32.9 37.5 27.57 37.5 26.5C37.5 26.5 37.5 26.5 37.5 26.5C41.1 26.5 43.1 26.5 43.5 26.5Z" id="fat8UDxpBN"></path></defs><g><g><g><use xlink:href="#d2IB3TvPq2" opacity="1" fill="#000000" fill-opacity="0"></use><g><use xlink:href="#d2IB3TvPq2" opacity="1" fill-opacity="0" stroke="#f2f0c9" stroke-width="1" stroke-opacity="1"></use></g></g><g><g><use xlink:href="#daxMzt3Fm" opacity="1" fill="#f2f0c9" fill-opacity="1"></use><g><use xlink:href="#daxMzt3Fm" opacity="1" fill-opacity="0" stroke="#000000" stroke-width="1" stroke-opacity="0"></use></g></g><g><use xlink:href="#fat8UDxpBN" opacity="1" fill="#f2f0c9" fill-opacity="1"></use><g><use xlink:href="#fat8UDxpBN" opacity="1" fill-opacity="0" stroke="#000000" stroke-width="1" stroke-opacity="0"></use></g></g></g></g></g></svg>