<svg xmlns="http://www.w3.org/2000/svg" width="84" height="84" viewBox="0 0 84 84"><defs><style>.a{fill:#d9343f;stroke:#f2f0c9;}.b{fill:#f2f0c9;}.c{stroke:none;}.d{fill:none;}</style></defs><g transform="translate(-1769 -498)"><g class="a" transform="translate(1769 498)"><circle class="c" cx="42" cy="42" r="42"/><circle class="d" cx="42" cy="42" r="41.5"/></g><path class="b" d="M1130.974,526.4l8.865,5.371a.9.9,0,0,0,1.088-.119l16.181-15.113a1.076,1.076,0,0,0,.094-1.441.9.9,0,0,0-1.339-.1l-15.676,14.641-8.856-5.365a.9.9,0,0,0-1.078.109l-5.855,5.31v-16.17a.952.952,0,1,0-1.9,0v26.958a.987.987,0,0,0,.949,1.021h31.9a1.024,1.024,0,0,0,0-2.042H1124.4v-7.095Z" transform="translate(671.5 14.5)"/></g></svg>