<svg xmlns="http://www.w3.org/2000/svg" width="84" height="84" viewBox="0 0 84 84"><defs><style>.a{fill:#d9343f;stroke:#f2f0c9;}.b{fill:#f2f0c9;}.c{stroke:none;}.d{fill:none;}</style></defs><g transform="translate(-1769 -381)"><g class="a" transform="translate(1769 381)"><circle class="c" cx="42" cy="42" r="42"/><circle class="d" cx="42" cy="42" r="41.5"/></g><g transform="translate(858.5 -65.5)"><g transform="translate(943.674 474.889)"><path class="b" d="M981.218,478.225H957.862a1.362,1.362,0,0,1,0-2.725h23.356a1.362,1.362,0,0,1,0,2.725Z" transform="translate(-956.5 -475.5)"/></g><g transform="translate(943.674 487.554)"><path class="b" d="M981.218,510.76H957.862a1.362,1.362,0,0,1,0-2.725h23.356a1.362,1.362,0,0,1,0,2.725Z" transform="translate(-956.5 -508.035)"/></g><g transform="translate(943.674 500.581)"><path class="b" d="M981.218,544.225H957.862a1.362,1.362,0,0,1,0-2.725h23.356a1.362,1.362,0,0,1,0,2.725Z" transform="translate(-956.5 -541.5)"/></g><g transform="translate(935.5 474.5)"><circle class="b" cx="1.557" cy="1.557" r="1.557"/></g><g transform="translate(935.695 487.54)"><circle class="b" cx="1.557" cy="1.557" r="1.557" transform="translate(0 0)"/></g><g transform="translate(935.695 500.386)"><circle class="b" cx="1.557" cy="1.557" r="1.557" transform="translate(0 0)"/></g></g></g></svg>