<svg xmlns="http://www.w3.org/2000/svg" width="84" height="84" viewBox="0 0 84 84"><defs><style>.a{fill:#d9343f;stroke:#f2f0c9;}.b{fill:#f2f0c9;}.c{stroke:none;}.d{fill:none;}</style></defs><g transform="translate(-1769 -615)"><g class="a" transform="translate(1769 615)"><circle class="c" cx="42" cy="42" r="42"/><circle class="d" cx="42" cy="42" r="41.5"/></g><g transform="translate(395.5 151.5)"><path class="b" d="M1418.422,527.5h-5.843a.8.8,0,0,1-.785-.66l-.906-5.181a16.691,16.691,0,0,1-3.673-1.54l-4.167,3.08a.8.8,0,0,1-1.038-.078l-4.132-4.132a.8.8,0,0,1-.089-1.022l3.024-4.306a16.668,16.668,0,0,1-1.507-3.684l-5.127-.769a.8.8,0,0,1-.679-.788v-5.843a.8.8,0,0,1,.66-.785l5.181-.907a16.685,16.685,0,0,1,1.54-3.673l-3.08-4.167a.8.8,0,0,1,.077-1.037l4.132-4.132a.8.8,0,0,1,1.022-.089l4.306,3.024a16.679,16.679,0,0,1,3.684-1.507l.769-5.127a.8.8,0,0,1,.788-.679h5.843a.8.8,0,0,1,.785.66l.906,5.181a16.672,16.672,0,0,1,3.673,1.54l4.167-3.08a.8.8,0,0,1,1.037.077l4.132,4.132a.8.8,0,0,1,.089,1.022l-3.024,4.306a16.67,16.67,0,0,1,1.507,3.684l5.127.769a.8.8,0,0,1,.679.788v5.843a.8.8,0,0,1-.66.785l-5.181.906a16.682,16.682,0,0,1-1.54,3.673l3.08,4.167a.8.8,0,0,1-.078,1.038l-4.132,4.132a.8.8,0,0,1-1.022.089l-4.306-3.024a16.673,16.673,0,0,1-3.684,1.508l-.769,5.127A.8.8,0,0,1,1418.422,527.5Zm-5.173-1.594h4.487l.745-4.969a.8.8,0,0,1,.6-.656,15.1,15.1,0,0,0,4.214-1.721.8.8,0,0,1,.868.032l4.174,2.931,3.173-3.172-2.986-4.039a.8.8,0,0,1-.039-.89,15.109,15.109,0,0,0,1.763-4.2.8.8,0,0,1,.636-.591l5.022-.878v-4.487l-4.969-.745a.8.8,0,0,1-.656-.6,15.1,15.1,0,0,0-1.721-4.214.8.8,0,0,1,.032-.867l2.931-4.174-3.173-3.173-4.039,2.986a.8.8,0,0,1-.89.039,15.109,15.109,0,0,0-4.2-1.763.8.8,0,0,1-.591-.636l-.878-5.022h-4.487l-.745,4.969a.8.8,0,0,1-.6.656,15.1,15.1,0,0,0-4.214,1.721.8.8,0,0,1-.867-.032l-4.174-2.931-3.173,3.173,2.986,4.039a.8.8,0,0,1,.039.89,15.11,15.11,0,0,0-1.763,4.2.8.8,0,0,1-.636.591l-5.022.879v4.487l4.969.745a.8.8,0,0,1,.656.6,15.1,15.1,0,0,0,1.721,4.214.8.8,0,0,1-.032.868l-2.931,4.175,3.173,3.172,4.039-2.986a.8.8,0,0,1,.89-.039,15.109,15.109,0,0,0,4.2,1.763.8.8,0,0,1,.591.636Zm23.454-17.484h0ZM1415.58,511.4a5.978,5.978,0,1,1,5.978-5.978A5.985,5.985,0,0,1,1415.58,511.4Zm0-10.362a4.384,4.384,0,1,0,4.384,4.384A4.389,4.389,0,0,0,1415.58,501.036Z"/></g></g></svg>