<?xml version="1.0" encoding="UTF-8" standalone="no"?>
<!DOCTYPE svg PUBLIC "-//W3C//DTD SVG 1.1//EN" "http://www.w3.org/Graphics/SVG/1.1/DTD/svg11.dtd">
<svg version="1.1" xmlns="http://www.w3.org/2000/svg" xmlns:xlink="http://www.w3.org/1999/xlink" preserveAspectRatio="xMidYMid meet" viewBox="-1 -1 73 73" width="69" height="69"><defs><path d="M34.5 0C15.45 0 0 15.45 0 34.5C0 53.55 15.45 69 34.5 69C53.55 69 69 53.55 69 34.5C69 15.45 53.55 0 34.5 0Z" id="a3yIGt0hmo"></path><path d="M41.51 33.53C41.23 28.12 38.53 24.24 34.99 24.24C31.45 24.24 28.75 28.12 28.47 33.53C28.38 36.47 26.72 39.13 24.12 40.5C23.79 40.68 23.67 41.09 23.84 41.42C23.96 41.64 24.19 41.78 24.43 41.78C25.12 41.78 30.66 41.78 31.35 41.78C31.37 43.43 32.99 44.76 34.99 44.76C36.98 44.76 38.6 43.43 38.63 41.78C39.32 41.78 44.85 41.78 45.54 41.78C45.92 41.77 46.22 41.46 46.21 41.09C46.21 40.84 46.07 40.61 45.85 40.5C43.25 39.13 41.59 36.47 41.51 33.53Z" id="c1jYy6xJr1"></path><path d="M20.39 21.85L47.64 48.12" id="a6aKjIOrK"></path><path d="M21.36 20.88L48.61 47.15" id="ePymDSf03"></path></defs><g><g><use xlink:href="#a3yIGt0hmo" opacity="1" fill="#000000" fill-opacity="0"></use><g><use xlink:href="#a3yIGt0hmo" opacity="1" fill-opacity="0" stroke="#f2f0c9" stroke-width="1" stroke-opacity="1"></use></g></g><g><use xlink:href="#c1jYy6xJr1" opacity="1" fill="#f2f0c9" fill-opacity="1"></use><g><use xlink:href="#c1jYy6xJr1" opacity="1" fill-opacity="0" stroke="#000000" stroke-width="1" stroke-opacity="0"></use></g></g><g><use xlink:href="#a6aKjIOrK" opacity="1" fill="#000000" fill-opacity="0"></use><g><use xlink:href="#a6aKjIOrK" opacity="1" fill-opacity="0" stroke="#f2f0c9" stroke-width="2" stroke-opacity="1"></use></g></g><g><use xlink:href="#ePymDSf03" opacity="1" fill="#000000" fill-opacity="0"></use><g><use xlink:href="#ePymDSf03" opacity="1" fill-opacity="0" stroke="#bc2b35" stroke-width="2" stroke-opacity="1"></use></g></g></g></svg>